<?xml version="1.0" encoding="UTF-8" standalone="no"?><!DOCTYPE svg PUBLIC "-//W3C//DTD SVG 1.1//EN" "http://www.w3.org/Graphics/SVG/1.1/DTD/svg11.dtd"><svg width="100%" height="100%" viewBox="0 0 1656 2332" version="1.1" xmlns="http://www.w3.org/2000/svg" xmlns:xlink="http://www.w3.org/1999/xlink" xml:space="preserve" xmlns:serif="http://www.serif.com/" style="fill-rule:evenodd;clip-rule:evenodd;stroke-linejoin:round;stroke-miterlimit:2;"><path id="path118" d="M5.557,455.55l0.261,20.833c0.143,11.459 33.34,390.837 73.771,843.059l73.51,822.225l330.396,92.505c181.717,50.877 334.146,92.761 338.729,93.082c4.583,0.322 159.024,-41.141 343.205,-92.138c295.293,-81.764 335.157,-94.079 337.272,-104.2c2.946,-14.1 147.552,-1645.41 147.404,-1662.87l-0.106,-12.5l-1644.44,0Z" style="fill:#fff;fill-rule:nonzero;"/><path id="path88" d="M486.111,2239.71l-333.333,-93.174l-4.356,-24.655c-3.872,-21.916 -148.422,-1636.39 -148.422,-1657.72c0,-7.721 84.399,-8.597 827.778,-8.597c784.68,-0 827.774,0.506 827.714,9.722c-0.262,39.805 -149.882,1675.66 -153.559,1678.92c-4.646,4.114 -649.819,183.856 -671.377,187.042c-6.112,0.903 -161.112,-40.286 -344.445,-91.532Zm551.852,-329.22c112.037,-30.9 205.32,-57.775 207.296,-59.723c1.976,-1.947 15.087,-134.79 29.134,-295.206c14.048,-160.417 26.96,-302.292 28.692,-315.278l3.151,-23.611l-484.014,-0l0,205.555l261.323,0l-2.599,12.5c-1.43,6.875 -6.987,65.956 -12.349,131.291c-5.681,69.228 -12.418,121.458 -16.145,125.186c-3.518,3.518 -56.759,19.819 -118.313,36.226l-111.917,29.83l0,104.706c0,71.466 1.911,104.706 6.018,104.706c3.31,-0 97.685,-25.282 209.723,-56.182Zm265.088,-822.985c-3.672,-27.222 -36.384,-392.345 -36.384,-406.112c-0,-8.362 -19.232,-9.166 -219.445,-9.166l-219.444,0l-0,214.948l98.611,3.801c54.236,2.09 111.314,5.271 126.841,7.069l28.229,3.27l6.853,84.067c3.77,46.237 8.261,93.442 9.981,104.901l3.127,20.833l204.816,0l-3.185,-23.611Z" style="fill:#eaebec;fill-rule:nonzero;"/><path id="path80" d="M483.494,2234.17l-330.395,-92.504l-73.511,-822.223c-40.431,-452.222 -73.628,-831.597 -73.772,-843.055l-0.26,-20.833l1644.44,-0l0.107,12.5c0.148,17.453 -144.462,1648.77 -147.408,1662.87c-2.114,10.121 -41.977,22.437 -337.27,104.2c-184.18,50.998 -338.623,92.46 -343.207,92.138c-4.583,-0.321 -157.011,-42.211 -338.728,-93.089l0,0Zm554.719,-319.758c114.212,-31.753 209.279,-60.355 211.26,-63.561c1.981,-3.205 15.625,-142.833 30.32,-310.284c14.695,-167.451 27.922,-308.832 29.393,-314.179c2.526,-9.186 -16.907,-9.722 -352.141,-9.722l-354.815,-0l15.107,-159.723c8.309,-87.847 15.307,-159.949 15.552,-160.227c0.244,-0.278 52.319,-1.939 115.722,-3.691c103.963,-2.874 318.353,5.42 325.526,12.592c2.679,2.68 20.307,175.627 20.307,199.235c0,11.641 1.571,11.814 107.651,11.814l107.651,-0l-2.537,-23.611c-1.395,-12.987 -10.514,-113.612 -20.264,-223.612l-17.727,-200l-415.165,-1.424c-330.286,-1.133 -415.173,0.003 -415.21,5.556c-0.029,3.839 -2.446,28.23 -5.379,54.202c-7.099,62.848 -61.242,670.094 -61.242,686.865l0,13.135l706.532,-0l-3.149,20.833c-1.732,11.458 -7.223,69.583 -12.203,129.167c-4.98,59.583 -10.657,109.872 -12.617,111.754c-5.176,4.968 -212.997,60.487 -225.956,60.363c-6.017,-0.057 -59.69,-13.449 -119.273,-29.759l-108.334,-29.654l-3.972,-46.63c-2.185,-25.646 -5.509,-62.255 -7.387,-81.352l-3.414,-34.722l-210.227,-0l0.233,20.833c0.435,38.961 25.699,301.395 29.368,305.064c4.243,4.243 407.968,117.729 420.399,118.174c4.584,0.163 101.78,-25.683 215.992,-57.436l-0.001,0Z" style="fill:#f0be25;fill-rule:nonzero;"/><path id="path78" d="M483.494,2234.17l-330.395,-92.504l-73.511,-822.223c-40.431,-452.222 -73.628,-831.597 -73.772,-843.055l-0.26,-20.833l1644.44,-0l0.107,12.5c0.148,17.453 -144.462,1648.77 -147.408,1662.87c-2.114,10.121 -41.977,22.437 -337.27,104.2c-184.18,50.998 -338.623,92.46 -343.207,92.138c-4.583,-0.321 -157.011,-42.211 -338.728,-93.089l0,0Zm616.143,-123.753c145.339,-40.104 266.982,-75.729 270.319,-79.167c5.192,-5.35 130.717,-1381.06 130.212,-1427.08l-0.168,-15.278l-672.222,-0l-0,77.778l-194.445,-0c-151.827,-0 -194.454,1.522 -194.49,6.944c-0.029,3.82 -2.446,28.195 -5.379,54.167c-7.099,62.848 -61.242,670.094 -61.242,686.865l0,13.135l455.556,-0l-0,161.111c-0,125.241 -1.546,161.088 -6.945,161.006c-3.819,-0.058 -55.694,-13.449 -115.277,-29.759l-108.334,-29.654l-3.972,-46.63c-2.185,-25.646 -5.509,-62.255 -7.387,-81.352l-3.414,-34.722l-210.227,-0l0.233,20.833c0.666,59.59 26.444,302.83 32.49,306.567c3.674,2.271 100.315,30.039 214.757,61.708l208.076,57.578l-0,104.435c-0,57.439 1.712,104.434 3.804,104.434c2.092,0 122.717,-32.812 268.055,-72.915Zm-482.885,-1051.98c7.987,-87.026 15.61,-159.214 16.94,-160.418c1.331,-1.203 45.544,-3.381 98.252,-4.84l95.834,-2.651l-0,326.139l-225.548,-0l14.522,-158.23Z" style="fill:#e4a126;fill-rule:nonzero;"/><path id="path76" d="M527.778,311.111l-0,-105.555l150,-0l-0,-205.556l105.555,0l0,311.111l-255.555,0Zm305.555,0l0,-83.333l69.445,-0c38.194,-0 69.444,-1.412 69.444,-3.138c0,-1.725 -31.25,-37.006 -69.444,-78.401l-69.445,-75.263l0,-70.976l288.889,0l0,82.991l-67.81,1.56l-67.811,1.56l70.589,76.018l70.588,76.018l-0,72.964l-294.445,0Z" style="fill:#fff;fill-rule:nonzero;"/></svg>